<?xml version="1.0" standalone="no"?>
<!DOCTYPE svg PUBLIC "-//W3C//DTD SVG 20010904//EN"
 "http://www.w3.org/TR/2001/REC-SVG-20010904/DTD/svg10.dtd">
<svg version="1.0" xmlns="http://www.w3.org/2000/svg"
 width="109.000000pt" height="109.000000pt" viewBox="0 0 109.000000 109.000000"
 preserveAspectRatio="xMidYMid meet">
<metadata>
Created by potrace 1.11, written by Peter Selinger 2001-2013
</metadata>
<g transform="translate(0.000000,109.000000) scale(0.100000,-0.100000)"
fill="#000000" stroke="none">
<path d="M0 545 l0 -545 545 0 545 0 0 545 0 545 -545 0 -545 0 0 -545z m520
275 l0 -250 -250 0 -250 0 0 250 0 250 250 0 250 0 0 -250z m548 -2 l2 -248
-260 0 -260 0 0 250 0 250 258 -2 257 -3 3 -247z m-548 -543 l0 -255 -250 0
-250 0 0 255 0 255 250 0 250 0 0 -255z m550 0 l0 -255 -260 0 -260 0 0 255 0
255 260 0 260 0 0 -255z"/>
<path d="M174 956 c-3 -7 -4 -39 -2 -71 l3 -58 55 -1 c48 -1 56 -4 69 -27 13
-24 13 -29 -3 -54 -17 -25 -22 -27 -73 -23 -42 4 -56 1 -60 -10 -9 -22 16 -32
80 -32 76 0 107 27 107 93 0 59 -36 97 -91 97 -37 0 -39 2 -39 30 0 30 1 30
55 30 48 0 55 2 55 20 0 18 -7 20 -75 20 -55 0 -77 -4 -81 -14z"/>
<path d="M731 961 c-29 -19 -5 -34 54 -35 56 -1 60 -3 63 -25 5 -30 -21 -51
-61 -51 -44 0 -33 -34 13 -38 43 -4 60 -18 60 -47 0 -37 -24 -48 -90 -42 -43
4 -60 2 -60 -7 0 -25 26 -36 81 -36 64 0 103 23 111 64 6 29 -16 86 -33 86 -7
0 -3 10 9 23 29 30 28 62 -3 92 -19 20 -34 25 -77 25 -29 0 -59 -4 -67 -9z"/>
<path d="M209 399 c-62 -62 -65 -184 -7 -247 16 -16 33 -22 63 -22 59 0 95 36
95 96 0 74 -56 113 -127 90 -27 -9 -31 9 -8 41 18 26 56 36 89 23 24 -9 26 -7
26 15 0 24 -3 25 -55 25 -42 0 -60 -5 -76 -21z m81 -119 c24 -13 33 -53 18
-84 -9 -20 -19 -26 -43 -26 -26 0 -35 6 -44 28 -24 57 19 109 69 82z"/>
</g>
</svg>
